<?xml version="1.0" encoding="UTF-8" standalone="no"?>
<!-- Created with Inkscape (http://www.inkscape.org/) -->

<svg
   xmlns:dc="http://purl.org/dc/elements/1.1/"
   xmlns:cc="http://creativecommons.org/ns#"
   xmlns:rdf="http://www.w3.org/1999/02/22-rdf-syntax-ns#"
   xmlns:svg="http://www.w3.org/2000/svg"
   xmlns="http://www.w3.org/2000/svg"
   xmlns:sodipodi="http://sodipodi.sourceforge.net/DTD/sodipodi-0.dtd"
   xmlns:inkscape="http://www.inkscape.org/namespaces/inkscape"
   id="svg4136"
   version="1.1"
   inkscape:version="0.91 r13725"
   width="802.5"
   height="680.625"
   viewBox="0 0 802.5 680.625"
   sodipodi:docname="ChildWithBook.svg">
  <metadata
     id="metadata4142">
    <rdf:RDF>
      <cc:Work
         rdf:about="">
        <dc:format>image/svg+xml</dc:format>
        <dc:type
           rdf:resource="http://purl.org/dc/dcmitype/StillImage" />
        <dc:title></dc:title>
      </cc:Work>
    </rdf:RDF>
  </metadata>
  <defs
     id="defs4140" />
  <sodipodi:namedview
     pagecolor="#ffffff"
     bordercolor="#666666"
     borderopacity="1"
     objecttolerance="10"
     gridtolerance="10"
     guidetolerance="10"
     inkscape:pageopacity="0"
     inkscape:pageshadow="2"
     inkscape:window-width="1600"
     inkscape:window-height="837"
     id="namedview4138"
     showgrid="false"
     inkscape:zoom="0.98438935"
     inkscape:cx="401.25"
     inkscape:cy="340.3125"
     inkscape:window-x="-8"
     inkscape:window-y="-8"
     inkscape:window-maximized="1"
     inkscape:current-layer="svg4136" />
  <path
     style="fill:#000000"
     d="m 257.75467,677.98458 c -12.57005,-7.39469 -14.66694,-8.73073 -16.81717,-10.71507 -2.18032,-2.01211 -3.21874,-2.17538 -14.8919,-2.34144 -11.79788,-0.16783 -17.77331,-1.12689 -20.49873,-3.29004 -0.64453,-0.51156 -1.17187,-2.72524 -1.17187,-4.91928 0,-2.19404 -0.52734,-4.42102 -1.17188,-4.94886 -0.6696,-0.54836 -9.6562,-1.17726 -20.96714,-1.46731 l -19.79526,-0.50762 -4.39793,-2.96813 c -7.69387,-5.19253 -11.22899,-12.83906 -12.28247,-26.5673 -0.47938,-6.24689 -0.81112,-6.96263 -3.74399,-8.0777 -1.19708,-0.45513 -2.74424,-2.01115 -3.43812,-3.4578 l -1.26158,-2.63028 -28.5802,-0.16196 c -26.418799,-0.14971 -28.86763,-0.0261 -32.381163,1.63548 -4.533634,2.1439 -15.498716,2.74818 -17.638794,0.97208 -1.517229,-1.25918 -20.019215,-1.2806 -20.795795,-0.0241 -0.396949,0.64227 -6.32829,1.0388 -17.005705,1.13688 -2.83224,0.026 -5.520884,-0.49858 -6.432375,-1.25505 -0.915281,-0.75962 -3.85703,-1.32965 -7.0788833,-1.37172 -5.7059121,-0.0745 -9.0358921,-1.68725 -6.59658457,-3.19483 2.15351297,-1.33091 12.51630887,-1.95843 18.41161987,-1.11487 5.479229,0.78401 12.072025,0.20764 19.6875,-1.72116 7.633906,-1.93347 20.410007,-0.80524 22.114631,1.95291 0.500749,0.81022 1.091937,0.6987 2.206996,-0.41637 1.191293,-1.19129 2.060745,-1.3186 3.991671,-0.58446 1.418658,0.53937 2.701091,0.58407 3.015169,0.10509 2.242466,-3.41985 16.124689,-4.65234 47.784903,-4.24244 16.60973,0.21504 19.58767,0.48213 22.73437,2.03899 l 3.62101,1.79153 0,-2.84882 c 0,-1.56685 -1.87248,-7.52564 -4.16106,-13.24175 -2.28858,-5.71612 -4.63036,-12.29138 -5.20396,-14.61169 -0.5736,-2.32031 -1.65426,-5.80932 -2.40145,-7.75335 -3.34552,-8.7043 -0.15469,-27.2053 5.45277,-31.61614 4.49808,-3.53819 4.34396,-4.4001 -11.04469,-61.7649 -1.85028,-6.89734 -4.36417,-17.94432 -5.58642,-24.54883 -1.22224,-6.60451 -2.87596,-13.40654 -3.67491,-15.11562 -1.88187,-4.02559 -8.67173,-29.65 -10.47077,-39.51592 -0.76763,-4.20969 -1.98904,-9.34149 -2.71423,-11.40399 -0.7252,-2.0625 -3.4833,-11.55469 -6.129114,-21.09375 -4.934446,-17.79034 -5.309402,-19.21789 -8.002839,-30.46875 -0.864078,-3.60938 -2.151052,-8.67188 -2.859943,-11.25 -2.791093,-10.15077 -7.647043,-31.80307 -9.881874,-44.0625 -1.828901,-10.03265 -4.28649,-20.27033 -10.914912,-45.46875 -2.509244,-9.53906 -5.29369,-21.35156 -6.187658,-26.25 -4.745101,-26.00045 -12.257302,-54.80265 -17.48312,-67.03125 -2.596549,-6.07602 -3.985296,-13.3852 -3.54712,-18.66903 0.364629,-4.39695 0.848176,-5.33188 4.432446,-8.57005 C 47.621317,103.07954 62.210168,93.75 63.706396,93.75 c 1.275031,0 13.001948,-9.037938 19.672443,-15.161556 3.834923,-3.520518 7.45317,-6.400944 8.040549,-6.400944 0.587379,0 4.410653,-3.44017 8.496165,-7.644823 C 108.91952,55.276133 121.50761,44.0625 122.90599,44.0625 c 0.56049,0 4.88204,-2.868734 9.60342,-6.374964 15.94814,-11.843524 21.53966,-15.164733 31.01332,-18.421047 5.07695,-1.745065 9.75694,-2.970954 10.39997,-2.724198 2.34328,0.899201 6.7491,7.500434 8.66913,12.988959 2.71661,7.765603 8.04374,21.338477 8.87937,22.623533 0.4939,0.759538 1.91261,0.800267 4.99274,0.143337 2.36654,-0.504734 5.7625,-0.643859 7.54656,-0.309166 2.83948,0.532689 3.5317,1.259628 5.55412,5.832693 1.27071,2.873288 2.31038,6.492157 2.31038,8.041931 0,2.781329 0.0516,2.810242 3.98437,2.235704 10.11436,-1.477578 14.73809,-2.426638 20.39063,-4.185353 3.35156,-1.042794 8.83594,-2.562092 12.1875,-3.376217 7.54743,-1.83334 21.54582,-5.660141 23.4375,-6.407212 0.77344,-0.30545 5.625,-1.896218 10.78125,-3.535041 5.15625,-1.638823 11.69531,-3.965398 14.53125,-5.170167 2.83594,-1.204769 10.00781,-3.952383 15.9375,-6.105808 5.92969,-2.153424 11.625,-4.417852 12.65625,-5.032061 1.03125,-0.614209 3.98437,-1.9016 6.5625,-2.860868 2.57812,-0.959268 8.69531,-3.621727 13.59375,-5.916575 10.24045,-4.797508 28.77053,-12.38498 30.24653,-12.38498 0.54963,0 4.00672,-1.42749 7.68242,-3.1721991 6.7895,-3.2226989 11.21006,-4.6798611 24.13404,-7.9553644 l 7.21924,-1.82967188 2.39013,2.21510308 C 418.92443,3.6011744 420,5.2224982 420,5.9858094 c 0,2.550627 6.61027,3.1145557 22.55406,1.9241096 10.76146,-0.8035064 13.21025,0.075958 20.96894,7.530809 5.4094,5.197572 9.81822,13.367833 10.26921,19.030559 0.36568,4.591406 1.2182,4.972477 8.56529,3.828641 4.71017,-0.733306 8.24539,-0.732432 12.63786,0.0031 3.35411,0.561675 8.4187,1.285299 11.25464,1.608053 2.83594,0.322753 5.79661,0.929415 6.57927,1.348137 0.78266,0.418721 6.56283,2.038622 12.84481,3.59978 12.56362,3.122227 13.99976,3.722623 19.48217,8.144712 2.0625,1.663605 5.97925,4.143676 8.70389,5.511269 4.95304,2.486103 6.12091,3.439565 10.51486,8.584447 5.72883,6.707893 8.35886,10.549784 8.97641,13.112555 0.36537,1.51621 1.91584,5.920808 3.44548,9.787995 2.69765,6.820078 2.78129,7.5099 2.78511,22.968751 0.005,17.30145 -0.894,23.83176 -4.97488,36.1669 -5.04985,15.26398 -9.21047,22.48771 -19.20275,33.34007 -4.08959,4.44159 -8.12366,9.18204 -8.9646,10.53433 -2.01936,3.24732 -3.01086,14.17748 -1.28606,14.17748 1.70912,0 32.19098,-10.71501 35.62754,-12.52382 1.54687,-0.81418 4.78973,-1.72626 7.20635,-2.02681 2.41662,-0.30056 5.85358,-1.53708 7.6377,-2.74781 4.5611,-3.09525 6.54196,-3.54322 8.64263,-1.95452 1.0042,0.75945 2.75111,1.39424 3.88204,1.41065 2.34014,0.0339 4.97804,3.27117 4.96885,6.09779 -0.004,1.04542 -0.83195,3.15352 -1.84122,4.68466 -1.15807,1.75688 -1.63117,3.59612 -1.28244,4.98559 0.39211,1.56229 0.0103,2.58155 -1.31468,3.50959 -1.05707,0.74041 -2.11887,2.88139 -2.44716,4.93437 -0.90055,5.63173 -3.13057,7.07286 -9.68816,6.2609 -2.99827,-0.37124 -12.41235,-0.72828 -20.92016,-0.79342 -16.57741,-0.1269 -21.5625,0.83456 -21.5625,4.15874 0,2.45677 1.00443,2.81845 10.23063,3.68391 10.41055,0.97656 13.84668,2.62371 14.67409,7.0342 0.86844,4.62922 0.36705,5.35927 -6.01802,8.76248 -9.38299,5.00108 -14.19386,11.26668 -11.56279,15.05923 0.57063,0.82254 2.60034,4.23771 4.51047,7.58927 1.91014,3.35156 3.88229,6.36457 4.38256,6.69556 0.50028,0.33099 3.48972,3.78005 6.6432,7.66456 11.51531,14.18475 16.17434,19.63167 22.37424,26.15797 3.48046,3.66371 6.32812,7.19324 6.32812,7.84342 0,0.65017 0.99169,2.37466 2.20375,3.83218 2.99051,3.59615 10.92125,17.51343 10.92125,19.16518 0,0.73198 1.05469,2.88299 2.34375,4.78001 1.28906,1.89704 2.34375,3.89161 2.34375,4.43242 0,0.5408 1.47656,4.17993 3.28125,8.08695 1.80469,3.90702 3.28125,7.31429 3.28125,7.5717 0,0.25741 2.2851,5.18362 5.07801,10.94716 2.7929,5.76352 5.36556,11.9557 5.71702,13.76039 0.35146,1.80469 1.186,4.14783 1.85454,5.20699 1.63046,2.58314 10.78793,27.24623 10.78793,29.05428 0,0.78633 0.6047,2.36407 1.34377,3.50609 0.73906,1.14201 1.98357,4.85915 2.76556,8.2603 0.78198,3.40115 2.44007,9.3074 3.68463,13.125 1.24456,3.8176 2.76006,8.83953 3.36777,11.15984 0.60771,2.32031 1.75346,6.32812 2.5461,8.90625 0.79265,2.57812 1.78425,6.16406 2.20354,7.96875 2.09821,9.0308 6.90114,27.36318 8.47378,32.34375 0.97687,3.09375 2.31885,7.52344 2.98219,9.84375 0.66333,2.32031 1.94891,5.67905 2.85685,7.46385 0.90795,1.7848 1.64977,4.10512 1.64849,5.15625 -0.003,2.3377 4.29249,12.80104 10.41995,25.38283 2.5203,5.17505 4.58237,9.74418 4.58237,10.15362 0,1.14721 6.4524,10.71582 11.6049,17.20952 5.27788,6.65172 9.42611,9.80267 16.90914,12.844 8.09257,3.28906 10.89697,7.40576 8.98715,13.19257 -0.5896,1.78651 -0.83339,3.63428 -0.54175,4.10617 0.29164,0.47187 4.22397,1.36321 8.73853,1.98076 4.51455,0.61755 13.69266,1.94686 20.39578,2.95405 16.41421,2.46632 24.27404,3.53191 30.70313,4.16254 5.18702,0.50879 5.39062,0.63034 5.39062,3.21847 0,1.47934 -0.52734,3.03101 -1.17187,3.44816 -1.69965,1.10004 -17.25576,1.21347 -25.25074,0.18413 -3.77225,-0.48567 -9.60083,-0.85398 -12.95239,-0.81848 -3.35156,0.0355 -8.41406,-0.007 -11.25,-0.0936 -10.60197,-0.32528 -14.74945,-0.32504 -22.96875,9.3e-4 -11.01,0.43712 -38.20563,0.49167 -43.59375,0.0875 -4.46411,-0.33491 -4.89052,-0.3327 -29.0625,0.15081 l -15.46875,0.30941 -5.625,3.40685 c -3.63386,2.20089 -8.27985,3.97665 -13.125,5.01655 -4.125,0.88533 -8.22048,1.98143 -9.10106,2.43576 -0.92959,0.47962 -3.50276,0.46541 -6.13551,-0.0339 -2.49395,-0.47296 -7.6355,-0.66435 -11.42569,-0.42531 -6.39481,0.40331 -7.21638,0.70685 -11.40497,4.21374 -4.39023,3.67602 -20.12694,11.16785 -23.45758,11.16785 -0.91147,0 -3.64082,1.05469 -6.06521,2.34375 -2.42439,1.28906 -5.61538,2.34375 -7.09108,2.34375 -1.4757,0 -4.47145,0.8339 -6.65724,1.85309 -2.18578,1.0192 -6.92728,2.52773 -10.53666,3.35227 -3.60937,0.82454 -8.90958,2.0441 -11.77823,2.71015 -2.86866,0.66606 -9.7714,1.48217 -15.33943,1.81359 -5.56803,0.33143 -10.56109,0.87292 -11.09569,1.20332 -0.5346,0.33041 -7.97561,0.50067 -16.53557,0.37839 -8.55997,-0.12229 -16.8292,-0.22229 -18.37608,-0.22223 -1.54687,7e-5 -5.49914,-0.80903 -8.78282,-1.798 -3.28368,-0.98896 -8.97899,-2.04919 -12.65625,-2.35607 -6.92954,-0.57829 -14.30463,-2.7064 -20.71228,-5.97661 -2.04262,-1.04247 -4.22733,-1.8954 -4.85491,-1.8954 -0.62758,0 -1.69854,-0.54335 -2.3799,-1.20744 -2.94027,-2.86576 -7.79967,-4.25125 -13.42634,-3.82804 -3.09375,0.2327 -9,0.5733 -13.125,0.7569 -4.125,0.18359 -11.71875,1.0404 -16.875,1.90401 -5.15625,0.86362 -11.0625,1.80817 -13.125,2.099 -2.0625,0.29084 -4.21684,0.89513 -4.78741,1.34288 -0.57057,0.44775 -2.89088,1.20473 -5.15625,1.68219 -12.12241,2.55497 -17.13895,3.90462 -23.87819,6.42418 -9.37283,3.50417 -13.75725,4.88882 -15.48021,4.88882 -0.74604,0 -2.82546,0.97214 -4.62094,2.16032 -1.79548,1.18818 -5.16294,2.71282 -7.48325,3.3881 -2.32031,0.6753 -5.0625,1.57084 -6.09375,1.99011 -2.2555,0.91702 -15.45851,2.79909 -19.02267,2.71167 -1.39691,-0.0342 -4.46429,-1.19442 -6.81641,-2.57812 z m 14.22827,-12.23072 c 1.22969,-0.96038 3.92331,-2.60326 5.98581,-3.65085 4.49416,-2.28267 9.21639,-7.911 11.3239,-13.49671 0.84565,-2.24128 2.0609,-5.34068 2.70057,-6.88755 4.47743,-10.82762 5.57025,-17.54357 4.80143,-29.50733 -0.34707,-5.4009 -1.08999,-11.72903 -1.65095,-14.0625 -0.56094,-2.33347 -0.95314,-6.54676 -0.87156,-9.36288 0.17983,-6.20683 -3.83485,-22.6945 -7.42778,-30.50479 -1.4232,-3.09375 -4.31778,-7.52344 -6.43241,-9.84375 -2.11463,-2.32031 -5.42785,-7.32406 -7.36273,-11.11943 l -3.51797,-6.9007 -6.5625,0.48406 c -3.60938,0.26623 -7.7125,1.00885 -9.11805,1.65026 -2.95321,1.34767 -11.9183,12.93131 -13.74588,17.76081 -0.68292,1.80469 -1.82122,4.84488 -2.52955,6.75598 -2.18159,5.88606 -4.13982,24.52632 -4.0966,38.99516 0.0441,14.76153 0.8423,23.02602 3.23238,33.46761 0.82618,3.60937 1.68683,8.25 1.91253,10.3125 1.05581,9.64794 7.29774,20.67452 13.5462,23.92982 2.94707,1.53534 10.84482,3.48744 14.65691,3.62276 1.60625,0.057 3.92656,-0.6821 5.15625,-1.64247 z m 214.44407,-11.27529 c 1.05373,-0.66769 1.01625,-1.19362 -0.21945,-3.07954 C 484.53015,648.83896 479.67309,645 478.11153,645 c -0.5648,0 -2.86856,-0.83897 -5.11946,-1.86438 -3.90809,-1.78033 -4.30701,-1.7951 -8.85044,-0.32774 -4.97395,1.6064 -12.81046,8.05373 -11.79201,9.70162 0.31545,0.5104 2.34161,0.95928 4.50259,0.99749 2.16097,0.0383 5.82748,0.40729 8.14779,0.82016 5.80907,1.03364 19.87782,1.13306 21.42701,0.15142 z m -156.51424,-9.427 c 2.27235,-1.16315 5.88231,-3.89074 8.02215,-6.0613 7.72234,-7.83325 10.2534,-25.55605 5.23576,-36.66162 -1.95849,-4.33473 -2.18012,-4.52478 -3.06685,-2.62976 -0.52569,1.12346 -2.12758,2.52801 -3.55974,3.12123 -3.18012,1.31726 -4.10699,4.98454 -2.19451,8.68287 0.88685,1.71497 1.18606,4.11144 0.85974,6.88597 -0.6401,5.44269 -1.01945,5.98604 -4.17933,5.98604 -2.33131,0 -2.8536,-0.62436 -4.9015,-5.85937 -2.55881,-6.54105 -5.14318,-8.02921 -7.6725,-4.4181 -1.26963,1.81263 -1.23135,2.67062 0.37823,8.47897 2.18873,7.89832 2.22339,10.47219 0.24694,18.34046 -1.2174,4.84648 -1.29638,6.299 -0.37354,6.86935 1.56737,0.96869 6.15976,-0.15213 11.20515,-2.73474 z m 120.57125,-6.75323 c 5.41319,-4.75286 6.37763,-7.45465 5.60601,-15.70487 -0.63698,-6.81069 -0.83754,-7.28294 -4.55006,-10.71443 -3.77221,-3.48664 -4.0405,-3.57575 -9.34417,-3.10371 -3.00324,0.26729 -6.05613,0.98035 -6.78418,1.58459 -0.72805,0.60423 -2.7585,3.96652 -4.5121,7.47177 -2.70872,5.41441 -3.11485,7.0559 -2.6996,10.91137 0.9156,8.5013 4.3074,12.24574 10.10694,11.15774 1.77553,-0.33309 3.36561,-0.16882 3.70661,0.38294 1.15554,1.8697 5.14477,0.93467 8.47055,-1.9854 z m 88.37527,0.66037 c 5.70446,-2.95583 10.61886,-7.73995 12.70663,-12.36978 1.64324,-3.64407 1.6352,-3.72858 -1.01497,-10.67309 -2.29468,-6.01298 -3.19376,-7.29372 -6.37676,-9.08366 -8.06071,-4.5329 -18.7777,0.83632 -23.78806,11.91782 -2.5474,5.63415 -2.43905,7.51945 0.80109,13.93812 2.19435,4.347 3.47243,5.7433 6.32812,6.91342 4.98552,2.04281 6.30526,1.96803 11.34395,-0.64283 z m -366.75737,-4.91499 c 1.56163,-2.32545 2.11718,-4.92251 2.50685,-11.71875 0.53397,-9.31293 -0.0207,-11.06048 -6.34199,-19.98122 -1.09612,-1.54688 -4.00726,-9.14063 -6.46921,-16.875 C 150.26789,549.24754 145.52975,536.25 143.85528,536.25 c -2.99894,0 -4.16814,3.95318 -4.15151,14.03673 0.0235,14.26319 2.17418,23.43748 8.90085,37.96939 3.19455,6.90137 3.52369,8.43137 4.28977,19.94153 1.30408,19.59322 2.31262,22.85748 8.2218,26.61082 5.37977,3.41709 8.31468,3.21278 10.98573,-0.76475 z m 323.05153,-3.1845 c 6.49463,-3.31332 9.65651,-10.45551 9.03026,-20.39795 -0.54355,-8.62936 -3.66516,-14.77935 -9.18371,-18.09312 -4.74119,-2.84698 -9.15366,-3.4108 -9.97347,-1.2744 -0.29681,0.77344 -1.55303,1.40625 -2.79161,1.40625 -2.53822,0 -6.15787,3.19162 -10.52602,9.28129 -2.5049,3.4921 -2.95032,4.93056 -2.90302,9.375 0.087,8.17485 1.29216,13.66898 3.52367,16.06424 1.125,1.20754 2.04545,2.52438 2.04545,2.9263 0,0.40194 1.16016,1.38118 2.57812,2.1761 3.30151,1.85085 13.27558,1.0487 18.20033,-1.46371 z m 80.14858,0.0989 c 4.61699,-3.39537 19.36381,-18.35277 22.65522,-22.97872 2.08475,-2.93002 2.21351,-3.52291 1.02349,-4.71292 -1.19002,-1.19001 -2.14222,-1.08837 -7.56914,0.80794 -12.96203,4.52929 -23.38687,17.00862 -21.84285,26.14757 0.32783,1.94042 0.89774,3.52804 1.26647,3.52804 0.36872,0 2.37878,-1.25636 4.46681,-2.79191 z M 383.4375,622.88764 c 0,-7.02396 -7.27764,-13.51264 -15.15564,-13.51264 -1.25503,0 -2.78811,-0.50625 -3.40686,-1.125 -1.83486,-1.83486 -1.39905,0.77258 0.51562,3.08499 4.7848,5.77874 15.38601,14.89163 17.34375,14.90883 0.38672,0.004 0.70313,-1.50689 0.70313,-3.35618 z m 29.35851,-6.14975 c 1.12625,-0.59104 3.99168,-2.68949 6.36761,-4.66323 3.76699,-3.12933 4.47176,-4.30434 5.5066,-9.18075 1.34673,-6.34607 0.79173,-9.91347 -1.75428,-11.27605 -0.96218,-0.51494 -6.44641,-1.3792 -12.18719,-1.92057 -8.6998,-0.82043 -10.87661,-0.75738 -13.07341,0.37863 -4.28372,2.21521 -4.52363,2.71577 -6.38169,13.31587 -0.61851,3.52852 1.55478,8.14865 4.84812,10.30653 5.64457,3.69846 12.89878,5.02085 16.67424,3.03957 z m -187.4115,-42.51914 c 2.24297,-13.94948 3.84483,-21.29844 5.19055,-23.81293 1.63356,-3.05233 0.57973,-10.24164 -1.83038,-12.48699 -1.02832,-0.95803 -1.86867,-2.67465 -1.86744,-3.81473 0.003,-2.52499 -5.89053,-29.38837 -8.57862,-39.1041 -1.06994,-3.86719 -2.3116,-10.40625 -2.75923,-14.53125 -0.44763,-4.125 -1.42928,-9.1875 -2.18143,-11.25 -0.75217,-2.0625 -2.43785,-8.60156 -3.74596,-14.53125 -2.50631,-11.36105 -5.60115,-22.37718 -9.34999,-33.28125 -8.48199,-24.67119 -15.08142,-49.25928 -17.48794,-65.15625 -0.42931,-2.83594 -1.64457,-9.79687 -2.70058,-15.46875 -1.05601,-5.67187 -1.92642,-12.32972 -1.93425,-14.7952 -0.007,-2.46549 -0.80907,-6.89517 -1.78054,-9.84375 -0.97146,-2.94858 -2.26945,-7.68136 -2.88441,-10.5173 -0.61496,-2.83594 -1.48334,-6.42188 -1.92974,-7.96875 -2.07142,-7.17797 -4.9581,-19.19236 -5.63129,-23.4375 -1.44909,-9.13781 -3.90121,-19.65115 -5.14394,-22.05432 -0.69291,-1.33995 -2.1039,-5.57432 -3.13553,-9.40973 -1.03162,-3.83539 -2.53343,-9.29376 -3.33736,-12.1297 -0.80392,-2.83594 -1.46668,-6.19057 -1.4728,-7.45473 -0.0131,-2.70565 -2.95276,-15.45016 -6.6059,-28.63902 -1.42821,-5.15625 -3.71014,-14.22656 -5.07094,-20.15625 -1.3608,-5.92969 -2.92319,-12.04688 -3.47197,-13.59375 -0.54879,-1.54688 -1.40805,-4.71094 -1.90946,-7.03125 -1.33087,-6.15859 -2.20455,-9.59416 -5.3979,-21.22614 -1.5771,-5.7447 -2.86903,-11.22908 -2.87097,-12.1875 -0.002,-0.95844 -0.8684,-3.16128 -1.92552,-4.89522 -1.0571,-1.73393 -1.7938,-3.22726 -1.63712,-3.31851 0.1567,-0.0912 1.86333,-0.98143 3.79253,-1.97816 3.32234,-1.71651 3.59313,-1.72675 5.12614,-0.19374 1.35435,1.35436 1.4449,2.07844 0.55479,4.43662 -1.0339,2.73911 -0.51423,6.76243 1.51206,11.7064 1.62867,3.97377 6.57146,23.84825 6.61111,26.5826 0.0176,1.21418 1.08671,4.30743 2.37577,6.8739 1.28906,2.56647 2.34375,6.05516 2.34375,7.75266 0,1.6975 0.65752,4.93236 1.46116,7.18859 0.80363,2.25624 2.07071,6.84444 2.81572,10.196 0.745,3.35156 1.99193,8.20312 2.77096,10.78125 2.7949,9.24943 6.20533,23.54038 6.93556,29.0625 0.86477,6.53956 4.95281,22.28751 7.54437,29.0625 1.49391,3.90546 2.83362,9.64554 3.28211,14.0625 0.79426,7.82212 2.14832,13.86969 6.19227,27.65625 0.9831,3.35156 2.06941,7.99219 2.41403,10.3125 0.34462,2.32031 1.4558,6.11719 2.46929,8.4375 1.31779,3.01703 1.87696,6.53318 1.96299,12.34376 0.0662,4.46876 0.4367,8.44141 0.82342,8.82813 0.38671,0.38671 0.70312,2.00667 0.70312,3.59993 0,1.59324 0.45242,4.37058 1.00538,6.17187 0.55296,1.80128 1.38653,6.43912 1.85237,10.30631 0.46585,3.86719 1.67056,10.40625 2.67717,14.53125 1.00659,4.125 2.47602,10.24219 3.26539,13.59375 0.78938,3.35156 3.17337,10.94531 5.29776,16.875 2.12438,5.92969 4.18741,12.25781 4.5845,14.0625 0.39707,1.80469 1.45538,4.96875 2.35178,7.03125 1.78546,4.10812 6.04106,18.74061 8.45232,29.0625 0.84317,3.60937 1.9784,8.46094 2.52272,10.78125 0.54433,2.32031 1.53793,5.70288 2.20801,7.51682 0.67008,1.81393 1.50794,5.82174 1.86192,8.90625 0.6215,5.41554 2.8399,15.1015 7.51129,32.79568 1.22516,4.64062 3.1328,12.55078 4.23919,17.57812 1.10639,5.02735 2.13798,9.14063 2.29243,9.14063 0.15444,0 3.21099,-2.88978 6.79233,-6.42173 5.30461,-5.23148 7.61788,-6.79537 12.48051,-8.4375 3.28296,-1.10867 7.32867,-2.01577 8.9905,-2.01577 6.94838,0 16.93698,6.99602 19.02601,13.32583 0.78282,2.37196 2.0644,3.56781 5.52506,5.15541 9.7582,4.47666 19.80083,14.81555 21.23864,21.86517 0.36426,1.78604 1.45413,5.98953 2.4219,9.34109 2.57843,8.92949 4.65807,18.80636 4.65527,22.10937 -9.4e-4,1.58985 0.23747,3.13055 0.53071,3.42378 0.29323,0.29324 3.14088,-0.53344 6.32812,-1.83705 10.26202,-4.19727 21.53158,-7.88457 29.70122,-9.71798 20.3124,-4.55843 25.58821,-5.42055 36.09375,-5.89812 6.1875,-0.28128 15.86653,-1.37059 21.50896,-2.42071 5.64243,-1.05011 11.97055,-1.91468 14.0625,-1.92127 2.09195,-0.007 9.92073,-1.48859 17.39729,-3.29334 7.47656,-1.80475 18.86719,-4.1331 25.3125,-5.17411 6.44531,-1.04101 15.72656,-2.54364 20.625,-3.33918 13.74431,-2.23216 21.59714,-4.04921 26.71875,-6.18237 2.57813,-1.0738 5.74219,-1.92262 7.03125,-1.88626 2.87515,0.0811 23.82123,-7.05766 34.14105,-11.63582 4.16774,-1.84892 9.8784,-4.38795 12.69038,-5.64229 10.6489,-4.75017 19.2467,-11.3319 23.57654,-18.04813 l 2.65591,-4.11973 -2.31319,-2.74908 c -1.27226,-1.51199 -2.31319,-3.17334 -2.31319,-3.69188 0,-0.89238 -3.09776,-8.30596 -8.08382,-19.34621 -3.90803,-8.65329 -15.7591,-42.62991 -20.50455,-58.78587 -1.36308,-4.64063 -3.89601,-13.07813 -5.62875,-18.75 -4.30199,-14.08198 -5.25071,-17.8365 -6.15926,-24.375 -0.42989,-3.09375 -1.64539,-9.58814 -2.70112,-14.43199 -1.05572,-4.84384 -2.76346,-14.54696 -3.79497,-21.5625 -2.57999,-17.54707 -3.46415,-22.74487 -4.62718,-27.20261 -0.55019,-2.10878 -1.41667,-5.44657 -1.92549,-7.4173 -0.50883,-1.97074 -1.16763,-5.45121 -1.46399,-7.73438 -0.29637,-2.28317 -1.10131,-8.58091 -1.78878,-13.99497 -1.68198,-13.24613 -10.67009,-38.30305 -15.65345,-43.63838 -1.46775,-1.57142 -2.66864,-3.234 -2.66864,-3.6946 0,-0.79697 -2.29805,-8.45911 -7.16546,-23.89101 -1.21525,-3.85289 -2.20989,-7.8607 -2.2103,-8.90625 -9.4e-4,-2.47437 -3.28972,-11.12284 -4.36609,-11.48162 -0.45768,-0.15256 -2.257,1.23325 -3.99851,3.07959 -3.03993,3.2229 -3.35731,3.33323 -7.94738,2.76238 -3.93442,-0.4893 -5.33753,-1.20697 -7.9239,-4.05297 -1.72859,-1.90211 -4.098,-5.59828 -5.26537,-8.2137 -1.16737,-2.61542 -3.1503,-5.56854 -4.40653,-6.5625 -5.41184,-4.28197 -9.01207,-14.49276 -10.33994,-29.32557 -1.015,-11.338 -0.97486,-12.02492 0.9178,-15.70422 1.35172,-2.62772 1.67455,-4.15228 1.01826,-4.80857 -0.52854,-0.52854 -1.36211,-2.74629 -1.85238,-4.92833 -0.77911,-3.46755 -0.5994,-4.46562 1.42642,-7.92242 2.82442,-4.81952 4.37894,-6.17652 9.3165,-8.13272 5.71107,-2.26266 5.9523,-3.21129 3.09925,-12.18779 -1.37402,-4.32303 -2.49634,-9.079486 -2.49404,-10.569886 0.002,-1.4904 -0.81433,-4.443522 -1.81473,-6.562499 -2.26088,-4.788842 -4.73717,-20.140501 -4.85572,-30.102685 -0.10678,-8.974436 -2.19032,-27.186333 -3.4858,-30.46875 -0.50876,-1.289063 -2.84031,-4.347656 -5.18121,-6.796875 -4.58678,-4.798998 -6.00305,-5.157647 -17.81435,-4.511217 -4.44948,0.243518 -24.00806,7.036034 -28.2354,9.805893 -2.1793,1.427931 -21.63226,9.673569 -30.44428,12.904591 -2.8143,1.031893 -6.207,2.439879 -7.53934,3.128858 -1.33234,0.688979 -4.72504,2.098639 -7.53934,3.132577 -2.8143,1.033938 -8.70244,3.198183 -13.08476,4.809435 -4.38231,1.61125 -8.81199,3.479662 -9.84375,4.152026 -1.03175,0.672364 -4.5532,1.899694 -7.82546,2.727402 -3.27226,0.827707 -6.47579,1.941654 -7.11897,2.475439 -1.25169,1.038814 -18.3118,7.053471 -24.28038,8.560214 -1.9794,0.499691 -5.26262,1.757288 -7.29604,2.794661 -2.03342,1.037372 -7.65056,2.913322 -12.48254,4.168776 -4.83198,1.255454 -10.61907,2.959202 -12.86021,3.786108 -2.24114,0.826906 -6.60605,2.094638 -9.6998,2.817182 -3.09375,0.722544 -9.63281,2.609922 -14.53125,4.194174 -11.39126,3.68416 -17.23157,5.249347 -22.5,6.029948 -2.32031,0.343791 -5.48438,1.191136 -7.03125,1.882992 -2.42265,1.083563 -14.64135,4.151963 -22.03125,5.532566 -1.28906,0.24082 -4.66406,1.10458 -7.5,1.91944 -2.83594,0.81487 -9.375,2.09029 -14.53125,2.83426 -13.71601,1.97905 -19.09817,2.12482 -36.27293,0.98241 -11.5126,-0.76579 -11.59088,-0.75223 -21.85207,3.78398 -2.57813,1.13973 -8.90625,3.45859 -14.0625,5.15303 -5.15625,1.69444 -12.680575,4.28203 -16.720723,5.75021 -4.040148,1.46818 -9.208117,2.66942 -11.484375,2.66942 -2.276259,0 -4.138652,0.42187 -4.138652,0.9375 0,0.51563 -1.898438,0.9375 -4.21875,0.9375 -2.459324,0 -4.21875,-0.43282 -4.21875,-1.0378 0,-0.57079 -0.654917,-0.78649 -1.455371,-0.47933 -3.260957,1.25135 -7.919629,-4.52829 -7.919629,-9.82525 0,-2.13264 5.151711,-7.16455 9.110513,-8.89866 1.659221,-0.7268 4.401408,-1.32722 6.09375,-1.33426 5.207139,-0.0217 7.058825,-0.91202 7.608062,-3.65821 0.409787,-2.048921 2.370718,-3.681765 9.709955,-8.085333 9.473819,-5.684327 13.426657,-8.652509 25.64896,-19.259781 8.09602,-7.026238 15.34577,-12.668587 23.70531,-18.449444 3.17884,-2.19825 7.88907,-5.837598 10.4672,-8.087441 C 154.05878,37.649715 162.78936,31.875 166.03156,31.875 c 3.32515,0 10.21844,8.22401 10.21844,12.191068 0,0.55867 1.05469,2.153198 2.34375,3.543394 1.28906,1.390195 2.34375,2.055576 2.34375,1.478624 0,-1.094348 -3.76252,-10.123459 -6.13018,-14.710936 -0.7534,-1.459754 -1.36982,-3.622942 -1.36982,-4.807083 0,-3.291364 -2.23088,-4.590211 -6.66599,-3.881009 -4.4144,0.70589 -8.58968,2.676912 -12.39032,5.849093 -1.45752,1.216517 -3.03137,2.211849 -3.49742,2.211849 -0.92733,0 -8.01407,4.617879 -15.49888,10.09942 -5.70147,4.175494 -17.44547,14.634944 -28.46429,25.350877 -4.40789,4.286725 -9.912788,8.89754 -12.2331,10.246256 -2.320313,1.348717 -6.75,4.60975 -9.84375,7.246742 -8.657883,7.379646 -14.70142,11.455389 -18.056518,12.177274 -1.681085,0.361706 -3.579522,1.156581 -4.21875,1.766401 -0.639228,0.6098 -3.06067,2.57611 -5.380982,4.36954 -2.320313,1.79343 -4.359375,3.58034 -4.53125,3.97089 -0.171875,0.39055 -0.895313,0.7101 -1.607641,0.7101 -4.207878,0 -3.694346,13.18619 0.98579,25.3125 3.475271,9.00449 6.736549,19.62841 8.921459,29.0625 0.656796,2.83594 1.721758,6.42187 2.366583,7.96875 0.644826,1.54687 2.096065,8.08594 3.224978,14.53125 1.128913,6.44531 2.456602,13.04742 2.950419,14.67136 0.493817,1.62393 1.269976,4.99893 1.724798,7.5 0.454823,2.50106 1.635246,8.13333 2.623164,12.51614 0.987917,4.38281 1.832987,8.8125 1.877933,9.84375 0.04494,1.03125 1.155227,4.82812 2.467291,8.4375 1.312063,3.60938 2.402792,7.61719 2.423841,8.90625 0.02105,1.28906 1.086571,5.71875 2.367826,9.84375 1.281255,4.125 2.329611,8.57375 2.329682,9.8861 7e-5,1.31236 1.014385,6.37486 2.254034,11.25 1.239648,4.87515 2.535193,11.39515 2.878988,14.4889 0.343795,3.09375 1.660454,9.47836 2.925908,14.18802 1.26545,4.70966 3.108725,12.80288 4.096147,17.98493 0.987431,5.18205 2.40765,10.60994 3.15604,12.06197 0.74839,1.45204 2.46161,7.12909 3.80717,12.61567 1.34556,5.48657 4.1153,15.07624 6.15498,21.31038 2.03969,6.23413 4.20944,13.97949 4.82165,17.21191 2.04969,10.82195 8.15665,32.63177 10.98445,39.22875 0.98154,2.28983 2.53229,8.16777 3.44612,13.0621 1.55187,8.31151 2.17656,11.09286 5.78867,25.77377 0.7612,3.09375 1.58728,6.67969 1.83575,7.96875 0.24847,1.28906 1.47922,5.71875 2.735,9.84375 2.01516,6.61944 6.30056,21.9315 8.78969,31.40625 2.89636,11.02485 3.88548,14.25693 6.1685,20.15625 5.60719,14.48892 11.80428,32.15633 14.14017,40.3125 2.87751,10.0473 7.06396,20.14938 10.33473,24.93813 4.53348,6.63748 15.79138,7.35611 28.41847,1.81405 7.86236,-3.45081 9.93467,-3.15387 12.87802,1.84528 l 1.72939,2.93731 0.61042,-12.48614 c 0.33572,-6.86736 1.28875,-16.70488 2.11784,-21.86113 z m 444.92799,24.94036 c 1.94251,-1.40381 2.39176,-2.5961 2.62418,-6.96452 0.16056,-3.01773 -0.22436,-6.18285 -0.90048,-7.40454 -0.64951,-1.17359 -1.22595,-4.87864 -1.28099,-8.23345 -0.18479,-11.26324 -5.01719,-14.49122 -11.08376,-7.4038 -5.34021,6.23884 -6.30196,18.6377 -2.09036,26.94889 3.10807,6.13347 7.13633,7.10085 12.73141,3.05742 z m 23.25,1.59089 c 1.21115,-1.21115 1.57316,-15.14982 0.52906,-20.37031 -0.50469,-2.52349 -0.96264,-2.93615 -2.99103,-2.69531 -2.01378,0.2391 -2.58769,1.03067 -3.60473,4.97187 -3.0575,11.84827 0.80183,23.35862 6.0667,18.09375 z m -65.30634,-2.82616 c 1.17492,-1.88376 1.99577,-8.77815 1.30448,-10.95625 -0.34347,-1.08218 -1.12341,-1.95312 -1.73319,-1.93543 -1.01419,0.0294 -7.25601,12.47002 -7.21858,14.38738 0.0239,1.22556 6.77337,-0.0945 7.64729,-1.4957 z m -92.08949,-5.77406 c 7.78147,-3.79469 11.71398,-8.78786 11.02857,-14.00312 -0.25821,-1.96464 -0.13849,-4.72614 0.26604,-6.13665 0.9255,-3.22704 -1.29615,-8.1293 -4.8879,-10.78555 -2.40599,-1.77933 -2.98382,-1.82886 -8.4375,-0.72321 -17.19609,3.48623 -25.71929,16.42473 -19.1951,29.13876 3.74287,7.29391 9.91814,8.02409 21.22589,2.50977 z m -74.8504,-5.04041 c 3.98522,-2.01855 5.54781,-3.48603 7.19935,-6.76114 3.13958,-6.22597 2.87614,-7.52422 -1.40625,-6.93016 -1.93359,0.26823 -4.62267,0.9037 -5.97571,1.41216 -1.35306,0.50846 -4.72806,1.27568 -7.5,1.70494 -12.07871,1.87049 -16.75866,3.07305 -16.75866,4.30629 0,1.66082 5.72323,6.189 9.59895,7.5946 5.02013,1.82065 9.40178,1.429 14.84232,-1.32668 z m 119.94144,-2.10648 c 8.37944,-2.95728 9.44087,-3.80967 12.26151,-9.84664 2.31983,-4.96509 2.24408,-10.19555 -0.22142,-15.28858 -1.63538,-3.37825 -2.94818,-4.58918 -6.97278,-6.4317 -6.75355,-3.09188 -9.87583,-2.2273 -15.09997,4.1813 -4.41828,5.42001 -7.78755,14.69183 -7.78755,21.43035 0,3.16956 0.54897,4.71157 2.30114,6.46374 3.01209,3.01208 5.80263,2.92066 15.51907,-0.50847 z m 57.032,-11.01852 c 2.88918,-2.44972 5.78363,-11.1426 5.69687,-17.10937 -0.15079,-10.37004 -3.86438,-17.88047 -6.8543,-13.8622 -0.65746,0.8836 -1.74334,5.9461 -2.41306,11.25 -0.66971,5.30389 -1.79457,11.87888 -2.49969,14.61107 -0.70511,2.73218 -1.28203,5.3689 -1.28203,5.85937 0,1.52107 5.31337,0.97987 7.35221,-0.74887 z m -14.5313,-24.84375 c 2.43174,-11.9226 5.31002,-29.21013 5.30701,-31.875 -0.004,-3.14592 -1.96585,-3.37493 -6.29588,-0.73478 -7.68955,4.68855 -10.07636,9.31433 -9.93286,19.25041 0.11804,8.17279 1.96433,14.60692 5.17092,18.02018 3.26341,3.47374 4.2557,2.66954 5.75081,-4.66081 z m 45.29354,-1.14486 c 2.59794,-1.81967 3.0181,-4.53123 2.16034,-13.94209 -0.81406,-8.93135 -3.41092,-18.11242 -5.33157,-18.84944 -2.07083,-0.79465 -8.38978,2.91484 -9.02874,5.30026 -1.10886,4.13966 -0.5998,16.35537 0.86011,20.63998 1.87833,5.51261 3.41807,6.92148 8.87618,8.12178 0.272,0.0598 1.38065,-0.51191 2.46368,-1.27049 z M 653.4623,495.23437 c 1.92257,-2.43462 1.99882,-3.17822 1.37009,-13.35937 -0.78393,-12.69407 -1.9984,-17.22859 -4.7186,-17.61808 -2.88682,-0.41335 -5.29536,5.38025 -5.83541,14.03679 -0.53161,8.52106 0.0687,12.34576 2.58557,16.47191 2.2708,3.72284 3.93529,3.84108 6.59835,0.46875 z M 630.52412,474.6168 c -0.28826,-8.63264 -0.53058,-18.2303 -0.53847,-21.32813 -0.0175,-6.87752 -0.841,-8.43535 -4.03513,-7.63367 -1.70581,0.42812 -3.10471,2.08624 -4.96091,5.88017 -2.30933,4.72011 -2.59174,6.34554 -2.64677,15.23374 -0.0528,8.51974 0.23366,10.50159 1.99256,13.7886 2.06371,3.85665 7.9606,9.75499 9.75259,9.75499 0.63796,0 0.78434,-5.26788 0.43613,-15.6957 z m -36.72055,7.03418 c 0.31824,-1.68148 0.77308,-4.05502 1.01073,-5.27454 0.69427,-3.56251 -1.35663,-11.20861 -3.77846,-14.08679 -2.32071,-2.75801 -7.79571,-5.90897 -8.98744,-5.17243 -0.74542,0.4607 1.15498,6.39371 6.35247,19.83225 1.84389,4.76751 3.68362,8.46358 4.0883,8.21347 0.40467,-0.2501 0.99615,-1.83048 1.3144,-3.51196 z m 9.65581,-42.46273 c 1.18311,-0.77522 3.22635,-3.53134 4.54052,-6.12473 2.26524,-4.47023 2.33149,-5.0174 1.27488,-10.53001 -1.56231,-8.15096 -4.75366,-14.17413 -8.28517,-15.63693 -1.89372,-0.7844 -3.26366,-0.87756 -4.03733,-0.27455 -0.64407,0.502 -3.44459,1.71248 -6.22338,2.68996 -5.86782,2.0641 -7.13434,3.66958 -8.37425,10.61542 -2.55971,14.33917 10.46903,26.22962 21.10472,19.26084 z m 41.9464,-2.21136 c 0.6538,-1.05787 -3.02094,-9.47689 -4.13648,-9.47689 -1.64411,0 -1.94912,3.67902 -0.57723,6.96244 1.32168,3.16321 3.57115,4.36315 4.71371,2.51445 z m -63.15665,-34.82237 c 1.36925,-0.7328 1.81337,-1.97651 1.81337,-5.07813 0,-2.45082 -0.47268,-4.26667 -1.17188,-4.50193 -2.22576,-0.74888 -4.53303,0.48568 -5.9199,3.1676 -1.24655,2.41055 -1.23138,2.9359 0.14536,5.03709 1.7019,2.59742 2.46671,2.80235 5.13305,1.37537 z m 33.79926,-15.53303 c 0.81919,-4.38491 0.41352,-6.95349 -2.16862,-13.73087 -0.79383,-2.08356 -1.56784,-2.57812 -4.03497,-2.57812 -3.81425,0 -5.26206,1.69853 -5.84329,6.85519 -0.88088,7.81515 6.29417,18.81737 9.92931,15.22558 0.70101,-0.69265 1.65392,-3.28995 2.11757,-5.77178 z m -50.97229,-6.23087 c 8.02108,-16.21499 8.65835,-51.48003 1.34259,-74.29687 -0.99194,-3.09375 -2.10514,-7.10156 -2.47378,-8.90625 -1.39942,-6.85103 -12.71404,-29.49959 -20.53018,-41.09546 -7.61864,-11.30284 -7.97764,-11.10792 -5.75858,3.12671 0.80381,5.15625 1.85925,12.0502 2.34542,15.3199 0.48616,3.2697 1.52845,7.23687 2.31618,8.81592 0.78774,1.57905 1.43225,4.09954 1.43225,5.6011 0,1.50155 0.4085,3.49337 0.90776,4.42626 0.49927,0.93289 1.33116,4.59657 1.84864,8.1415 1.71766,11.76649 2.9757,18.60117 3.94738,21.44532 3.03232,8.87564 4.49163,16.54306 4.99608,26.25 0.75217,14.47379 4.66171,35.14031 6.64958,35.1509 0.55314,0.003 1.89264,-1.78762 2.97666,-3.97903 z M 596.25,327.62509 c 0,-0.75832 -4.77891,-10.11827 -5.84239,-11.44289 -1.70779,-2.12713 -2.36893,-0.33089 -1.54259,4.19097 0.48421,2.64967 1.6241,5.13882 2.79858,6.1112 1.87471,1.55211 4.5864,2.22656 4.5864,1.14072 z m -69.93628,-98.64072 c 1.83705,-9.0178 2.55071,-16.83178 2.97541,-32.57812 0.38766,-14.3736 0.20296,-18.71747 -0.95671,-22.5 -0.79042,-2.57813 -1.44169,-5.51987 -1.44728,-6.5372 -0.0275,-5.00626 -10.38319,-21.11905 -13.57326,-21.11905 -0.56082,0 -1.95395,-0.65438 -3.09583,-1.45419 -1.97685,-1.38464 -2.00925,-1.6143 -0.67735,-4.80199 1.89372,-4.53233 1.90577,-4.48571 -2.35276,-9.10568 -4.57914,-4.96778 -11.82286,-7.65217 -18.03528,-6.68354 -6.47101,1.00896 -12.22002,3.40241 -15.47878,6.4442 -3.44571,3.21629 -3.83813,4.91122 -1.32198,5.70981 0.94869,0.3011 2.31082,1.64229 3.02697,2.98041 1.20291,2.24768 1.11935,2.58562 -1.09748,4.43759 -3.3694,2.81488 -4.95337,7.32981 -4.24518,12.10046 0.32386,2.18167 1.03138,7.29268 1.57227,11.35778 1.12669,8.46772 3.23111,13.14976 8.46012,18.82256 2.74727,2.98045 3.69098,4.8033 3.71321,7.17243 0.0399,4.24416 1.87691,6.42855 5.96418,7.09182 1.85955,0.30177 3.38101,0.30665 3.38101,0.0109 0,-0.2958 -0.85878,-1.99334 -1.90839,-3.77231 -1.83114,-3.10355 -1.84063,-3.30044 -0.23438,-4.86372 0.92071,-0.89607 2.521,-3.36185 3.55617,-5.47952 1.98898,-4.06877 4.82521,-5.45852 6.49338,-3.18172 0.54971,0.75027 2.31115,2.04187 3.9143,2.87024 3.41199,1.763 4.35319,3.82139 6.94482,15.18828 2.2236,9.75266 7.92883,27.33913 9.47251,29.19915 1.81167,2.18293 4.37721,1.50478 4.95031,-1.30853 z m 20.94024,-49.35516 c 2.75837,-1.52592 15.18436,-17.31801 15.86067,-20.15721 0.31978,-1.34241 0.97626,-2.94338 1.45886,-3.55772 0.48259,-0.61432 1.29638,-4.20026 1.80842,-7.96875 0.51203,-3.76847 1.57366,-8.75022 2.35917,-11.07053 2.74059,-8.09543 1.36316,-45.910588 -1.75613,-48.211148 -0.75139,-0.554181 -1.8355,-1.888979 -2.40912,-2.966216 -0.57361,-1.077238 -2.12204,-3.18839 -3.44095,-4.69145 -1.31891,-1.503061 -3.9945,-5.051372 -5.94575,-7.885137 -1.95125,-2.833764 -4.90596,-5.839461 -6.56601,-6.679326 -1.66007,-0.839864 -3.85561,-2.591488 -4.87899,-3.892496 -2.59102,-3.293957 -11.29442,-8.016989 -16.11879,-8.747116 -2.21738,-0.33558 -6.99866,-1.589297 -10.62507,-2.786039 -6.63388,-2.189225 -21.60672,-3.818432 -34.18777,-3.719999 l -6.09375,0.04767 0.12525,2.8125 c 0.90677,20.36145 4.54791,45.748697 7.77382,54.201655 0.55395,1.45153 1.00718,4.29919 1.00718,6.32813 0,3.17934 0.2914,3.69887 2.10937,3.76069 2.33593,0.0794 2.85654,0.19205 9.65263,2.08798 6.21858,1.73481 8.30895,2.91597 13.29603,7.51291 4.39312,4.04943 7.75447,9.59356 7.75447,12.79004 0,1.05179 0.82652,2.73886 1.8367,3.74905 2.88947,2.88947 10.80642,14.23099 12.47058,17.86488 4.14101,9.04237 6.3075,18.50557 6.32835,27.64217 l 0.0128,5.625 3.14811,-5.52705 c 1.73147,-3.03987 3.99041,-5.99299 5.01989,-6.5625 z M 106.56863,104.91444 c 7.64506,-3.1408 15.28553,-6.304862 16.9788,-7.031246 1.69328,-0.726385 3.87575,-1.320694 4.84994,-1.320694 0.9742,0 2.9638,-0.987881 4.42132,-2.195297 3.83865,-3.17993 14.95141,-8.711128 20.93131,-10.418229 3.34074,-0.953692 7.34196,-3.200905 11.36391,-6.382347 9.00434,-7.122603 17.70617,-13.315529 21.30134,-15.159737 1.72369,-0.884205 2.88515,-1.856486 2.58102,-2.160623 C 188.14059,59.390596 178.84891,56.25 177.17302,56.25 c -0.82099,0 -2.92385,-1.476563 -4.67302,-3.28125 -1.74917,-1.804688 -3.52583,-3.28125 -3.94811,-3.28125 -1.19019,0 -10.11267,5.370053 -14.80189,8.908615 -6.09371,4.598411 -19.18118,13.773655 -33.09226,23.200007 -6.65763,4.511305 -13.80762,9.551057 -15.88889,11.19945 -2.08126,1.64839 -5.355675,4.074509 -7.276481,5.391378 -1.920797,1.316869 -4.832006,3.54217 -6.469358,4.94513 -2.898131,2.48325 -2.935842,2.61365 -1.423434,4.92188 0.854462,1.30407 1.894524,2.37104 2.31125,2.37104 0.416726,0 7.012739,-2.56975 14.657803,-5.71056 z m -19.471478,-4.36756 c 1.852337,-1.417974 5.689033,-4.09868 8.525992,-5.957124 2.836959,-1.858453 6.226966,-4.389703 7.533346,-5.625004 1.30638,-1.235301 6.30009,-4.98819 11.09712,-8.339752 4.79704,-3.351563 16.38444,-11.807395 25.74976,-18.790739 9.36534,-6.983344 19.13725,-14.118116 21.71538,-15.85505 2.57812,-1.736933 4.83149,-3.268839 5.00748,-3.404236 0.73935,-0.568825 -1.00773,-4.137139 -2.02378,-4.13346 -0.60978,0.0022 -6.38038,4.897805 -12.82356,10.879104 -10.59013,9.830989 -15.80608,13.991625 -31.22689,24.908926 -2.67891,1.896562 -5.50356,4.032261 -6.277,4.745998 -0.77344,0.713736 -4.35938,3.286292 -7.96875,5.71679 -3.60938,2.430498 -10.332778,7.150268 -14.940886,10.488376 -4.608111,3.33811 -8.721393,6.069291 -9.140625,6.069291 -0.419231,0 -0.762239,0.42188 -0.762239,0.9375 0,1.6317 2.056093,1.02222 5.534652,-1.64062 z m 84.934098,-5.073127 c 5.67187,-0.566006 12.08827,-1.596431 14.25867,-2.289836 2.1704,-0.693401 6.60009,-1.701417 9.84375,-2.240035 3.24367,-0.538619 8.8507,-1.82213 12.46008,-2.852248 3.60937,-1.030118 10.49032,-2.925832 15.29097,-4.212698 4.80066,-1.286866 11.12878,-3.232017 14.0625,-4.322559 2.93372,-1.090541 9.55278,-3.010464 14.70903,-4.266494 C 281.64694,68.227928 345.41026,46.321027 381.5625,31.002097 410.58007,18.706369 419.93686,14.557017 419.96914,13.970334 419.98612,13.66183 418.3125,12.74655 416.25,11.936377 414.0782,11.083268 412.5,9.8397722 412.5,8.9816674 412.5,8.1002182 411.70032,7.5 410.52594,7.5 c -2.81403,0 -13.32512,2.793141 -14.38532,3.822648 -0.48984,0.475669 -1.42323,0.864852 -2.0742,0.864852 -2.26439,0 -11.34878,3.810062 -13.46918,5.649073 -1.21919,1.057399 -3.49351,1.850927 -5.30492,1.850927 -1.74394,0 -4.10516,0.608573 -5.24718,1.352384 -1.14201,0.743812 -9.03733,4.138838 -17.54514,7.544503 -15.35043,6.144754 -31.04369,13.026505 -37.66837,16.518195 -4.62702,2.43877 -19.48319,8.10113 -27.01913,10.298212 -6.96631,2.031005 -9.17326,2.847778 -18.28125,6.765713 -7.99873,3.440773 -33.92345,10.958248 -47.34375,13.728428 -17.40715,3.593132 -35.10139,7.996221 -50.15625,12.48104 -12.0509,3.589944 -14.26005,3.953686 -15.87453,2.613787 -1.78817,-1.484051 -8.37019,0.286207 -11.0581,2.974119 -1.93633,1.936331 -1.94131,2.009072 -0.18492,2.698172 2.00349,0.786056 11.50528,0.369684 27.11755,-1.1883 z M 756.5625,628.125 c 0,-0.51563 0.42187,-0.9375 0.9375,-0.9375 0.51562,0 0.9375,0.42187 0.9375,0.9375 0,0.51562 -0.42188,0.9375 -0.9375,0.9375 -0.51563,0 -0.9375,-0.42188 -0.9375,-0.9375 z"
     id="path4146"
     inkscape:connector-curvature="0" />
</svg>
